<?xml version="1.0" encoding="UTF-8" standalone="no"?>
<!DOCTYPE svg PUBLIC "-//W3C//DTD SVG 1.1//EN"
 "http://www.w3.org/Graphics/SVG/1.1/DTD/svg11.dtd">
<!-- Generated by graphviz version 2.40.1 (20161225.0304)
 -->
<!-- Title: G Pages: 1 -->
<svg width="225pt" height="292pt"
 viewBox="0.00 0.00 224.64 292.00" xmlns="http://www.w3.org/2000/svg" xmlns:xlink="http://www.w3.org/1999/xlink">
<g id="graph0" class="graph" transform="scale(1 1) rotate(0) translate(4 288)">
<title>G</title>
<polygon fill="#ffffff" stroke="transparent" points="-4,4 -4,-288 220.636,-288 220.636,4 -4,4"/>
<!-- A0 -->
<g id="node1" class="node">
<title>A0</title>
<path fill="none" stroke="#000000" d="M131.7942,-284C131.7942,-284 65.2058,-284 65.2058,-284 59.2058,-284 53.2058,-278 53.2058,-272 53.2058,-272 53.2058,-260 53.2058,-260 53.2058,-254 59.2058,-248 65.2058,-248 65.2058,-248 131.7942,-248 131.7942,-248 137.7942,-248 143.7942,-254 143.7942,-260 143.7942,-260 143.7942,-272 143.7942,-272 143.7942,-278 137.7942,-284 131.7942,-284"/>
<text text-anchor="middle" x="98.5" y="-263" font-family="Helvetica,sans-Serif" font-size="10.00" fill="#000000">{Ventilatie Uit}</text>
</g>
<!-- A1 -->
<g id="node2" class="node">
<title>A1</title>
<polygon fill="none" stroke="#000000" points=".5,-156 .5,-200 107.5,-200 107.5,-156 .5,-156"/>
<text text-anchor="start" x="36.7685" y="-181" font-family="Helvetica,sans-Serif" font-size="10.00" fill="#000000">{Bepaal</text>
<text text-anchor="start" x="24.2715" y="-169" font-family="Helvetica,sans-Serif" font-size="10.00" fill="#000000">ventilatieduur</text>
<polygon fill="none" stroke="#000000" points=".5,-112 .5,-156 107.5,-156 107.5,-112 .5,-112"/>
<text text-anchor="start" x="10.3835" y="-137" font-family="Helvetica,sans-Serif" font-size="10.00" fill="#000000">observeer indruktijd</text>
<text text-anchor="start" x="31.7685" y="-125" font-family="Helvetica,sans-Serif" font-size="10.00" fill="#000000">drukknop}</text>
</g>
<!-- A0&#45;&gt;A1 -->
<g id="edge1" class="edge">
<title>A0&#45;&gt;A1</title>
<path fill="none" stroke="#000000" d="M72.3168,-247.8984C66.7867,-242.7751 61.639,-236.7341 58.364,-230 55.3752,-223.8544 53.4167,-217.0761 52.1898,-210.1917"/>
<polygon fill="#000000" stroke="#000000" points="50.8807,-200.0905 56.6287,-209.4292 51.5233,-205.049 52.166,-210.0075 52.166,-210.0075 52.166,-210.0075 51.5233,-205.049 47.7033,-210.5859 50.8807,-200.0905 50.8807,-200.0905"/>
<text text-anchor="middle" x="94.068" y="-221" font-family="Helvetica,sans-Serif" font-size="10.00" fill="#000000">[knop ingedrukt]</text>
</g>
<!-- A2 -->
<g id="node3" class="node">
<title>A2</title>
<polygon fill="none" stroke="#000000" points="55.5,-32 55.5,-64 140.5,-64 140.5,-32 55.5,-32"/>
<text text-anchor="start" x="65.4875" y="-45" font-family="Helvetica,sans-Serif" font-size="10.00" fill="#000000">{Ventilatie Aan</text>
<polygon fill="none" stroke="#000000" points="55.5,0 55.5,-32 140.5,-32 140.5,0 55.5,0"/>
<text text-anchor="start" x="74.1105" y="-13" font-family="Helvetica,sans-Serif" font-size="10.00" fill="#000000">start timer}</text>
</g>
<!-- A1&#45;&gt;A2 -->
<g id="edge2" class="edge">
<title>A1&#45;&gt;A2</title>
<path fill="none" stroke="#000000" d="M48.6962,-111.6298C48.9875,-101.6357 50.4182,-91.2539 53.915,-82 55.0954,-78.8761 56.5677,-75.8183 58.2506,-72.8517"/>
<polygon fill="#000000" stroke="#000000" points="63.8498,-64.2508 62.1653,-75.0866 61.1219,-68.4411 58.394,-72.6314 58.394,-72.6314 58.394,-72.6314 61.1219,-68.4411 54.6227,-70.1763 63.8498,-64.2508 63.8498,-64.2508"/>
<text text-anchor="middle" x="92.2925" y="-85" font-family="Helvetica,sans-Serif" font-size="10.00" fill="#000000">[knop losgelaten]</text>
</g>
<!-- A2&#45;&gt;A0 -->
<g id="edge3" class="edge">
<title>A2&#45;&gt;A0</title>
<path fill="none" stroke="#000000" d="M121.6868,-64.0567C124.9034,-69.7724 127.7056,-75.8673 129.5,-82 147.9722,-145.1308 152.3918,-168.3341 129.5,-230 128.2568,-233.3491 126.5468,-236.5954 124.5637,-239.6778"/>
<polygon fill="#000000" stroke="#000000" points="118.4121,-247.8803 120.8119,-237.1803 121.412,-243.8803 124.412,-239.8802 124.412,-239.8802 124.412,-239.8802 121.412,-243.8803 128.012,-242.5801 118.4121,-247.8803 118.4121,-247.8803"/>
<text text-anchor="middle" x="181.068" y="-165" font-family="Helvetica,sans-Serif" font-size="10.00" fill="#000000">[knop ingedrukt </text>
<text text-anchor="middle" x="181.068" y="-153" font-family="Helvetica,sans-Serif" font-size="10.00" fill="#000000">OF</text>
<text text-anchor="middle" x="181.068" y="-141" font-family="Helvetica,sans-Serif" font-size="10.00" fill="#000000"> timer verlopen]</text>
</g>
</g>
</svg>
