<?xml version="1.0" encoding="UTF-8" standalone="no"?>
<!DOCTYPE svg PUBLIC "-//W3C//DTD SVG 1.1//EN"
 "http://www.w3.org/Graphics/SVG/1.1/DTD/svg11.dtd">
<!-- Generated by graphviz version 2.40.1 (20161225.0304)
 -->
<!-- Title: G Pages: 1 -->
<svg width="551pt" height="222pt"
 viewBox="0.00 0.00 551.06 222.00" xmlns="http://www.w3.org/2000/svg" xmlns:xlink="http://www.w3.org/1999/xlink">
<g id="graph0" class="graph" transform="scale(1 1) rotate(0) translate(4 218)">
<title>G</title>
<polygon fill="#ffffff" stroke="transparent" points="-4,4 -4,-218 547.0583,-218 547.0583,4 -4,4"/>
<!-- A0 -->
<g id="node1" class="node">
<title>A0</title>
<ellipse fill="none" stroke="#000000" cx="253.6483" cy="-203" rx="11" ry="11"/>
</g>
<!-- A1 -->
<g id="node2" class="node">
<title>A1</title>
<path fill="none" stroke="#000000" d="M133.5524,-144C133.5524,-144 65.7443,-144 65.7443,-144 59.7443,-144 53.7443,-138 53.7443,-132 53.7443,-132 53.7443,-120 53.7443,-120 53.7443,-114 59.7443,-108 65.7443,-108 65.7443,-108 133.5524,-108 133.5524,-108 139.5524,-108 145.5524,-114 145.5524,-120 145.5524,-120 145.5524,-132 145.5524,-132 145.5524,-138 139.5524,-144 133.5524,-144"/>
<text text-anchor="middle" x="99.6483" y="-123" font-family="Helvetica,sans-Serif" font-size="10.00" fill="#000000">{Ventilator Uit}</text>
</g>
<!-- A0&#45;&gt;A1 -->
<g id="edge1" class="edge">
<title>A0&#45;&gt;A1</title>
<path fill="none" stroke="#000000" d="M243.544,-197.9478C223.826,-188.0889 179.1422,-165.7469 144.7605,-148.5561"/>
<polygon fill="#000000" stroke="#000000" points="135.8153,-144.0835 146.7721,-144.5307 140.2874,-146.3196 144.7596,-148.5557 144.7596,-148.5557 144.7596,-148.5557 140.2874,-146.3196 142.7471,-152.5806 135.8153,-144.0835 135.8153,-144.0835"/>
<text text-anchor="middle" x="208.9848" y="-165" font-family="Helvetica,sans-Serif" font-size="10.00" fill="#000000">[Start]</text>
</g>
<!-- A3 -->
<g id="node4" class="node">
<title>A3</title>
<path fill="none" stroke="#000000" d="M279.3676,-144C279.3676,-144 227.929,-144 227.929,-144 221.929,-144 215.929,-138 215.929,-132 215.929,-132 215.929,-120 215.929,-120 215.929,-114 221.929,-108 227.929,-108 227.929,-108 279.3676,-108 279.3676,-108 285.3676,-108 291.3676,-114 291.3676,-120 291.3676,-120 291.3676,-132 291.3676,-132 291.3676,-138 285.3676,-144 279.3676,-144"/>
<text text-anchor="middle" x="253.6483" y="-123" font-family="Helvetica,sans-Serif" font-size="10.00" fill="#000000">{Timer Uit}</text>
</g>
<!-- A0&#45;&gt;A3 -->
<g id="edge4" class="edge">
<title>A0&#45;&gt;A3</title>
<path fill="none" stroke="#000000" d="M253.6483,-191.9678C253.6483,-182.124 253.6483,-167.2813 253.6483,-154.1664"/>
<polygon fill="#000000" stroke="#000000" points="253.6483,-144.1474 258.1484,-154.1473 253.6484,-149.1474 253.6484,-154.1474 253.6484,-154.1474 253.6484,-154.1474 253.6484,-149.1474 249.1484,-154.1474 253.6483,-144.1474 253.6483,-144.1474"/>
<text text-anchor="middle" x="266.9848" y="-165" font-family="Helvetica,sans-Serif" font-size="10.00" fill="#000000">[Start]</text>
</g>
<!-- A5 -->
<g id="node6" class="node">
<title>A5</title>
<path fill="none" stroke="#000000" d="M530.9685,-144C530.9685,-144 434.3282,-144 434.3282,-144 428.3282,-144 422.3282,-138 422.3282,-132 422.3282,-132 422.3282,-120 422.3282,-120 422.3282,-114 428.3282,-108 434.3282,-108 434.3282,-108 530.9685,-108 530.9685,-108 536.9685,-108 542.9685,-114 542.9685,-120 542.9685,-120 542.9685,-132 542.9685,-132 542.9685,-138 536.9685,-144 530.9685,-144"/>
<text text-anchor="middle" x="482.6483" y="-123" font-family="Helvetica,sans-Serif" font-size="10.00" fill="#000000">{Knop niet ingedrukt}</text>
</g>
<!-- A0&#45;&gt;A5 -->
<g id="edge7" class="edge">
<title>A0&#45;&gt;A5</title>
<path fill="none" stroke="#000000" d="M264.083,-199.4914C291.0744,-190.4157 364.8811,-165.5986 419.293,-147.3029"/>
<polygon fill="#000000" stroke="#000000" points="428.8698,-144.0827 420.8255,-151.5352 424.1306,-145.6763 419.3913,-147.2699 419.3913,-147.2699 419.3913,-147.2699 424.1306,-145.6763 417.9571,-143.0046 428.8698,-144.0827 428.8698,-144.0827"/>
<text text-anchor="middle" x="388.9848" y="-165" font-family="Helvetica,sans-Serif" font-size="10.00" fill="#000000">[Start]</text>
</g>
<!-- A2 -->
<g id="node3" class="node">
<title>A2</title>
<path fill="none" stroke="#000000" d="M109.6235,-36C109.6235,-36 35.6732,-36 35.6732,-36 29.6732,-36 23.6732,-30 23.6732,-24 23.6732,-24 23.6732,-12 23.6732,-12 23.6732,-6 29.6732,0 35.6732,0 35.6732,0 109.6235,0 109.6235,0 115.6235,0 121.6235,-6 121.6235,-12 121.6235,-12 121.6235,-24 121.6235,-24 121.6235,-30 115.6235,-36 109.6235,-36"/>
<text text-anchor="middle" x="72.6483" y="-15" font-family="Helvetica,sans-Serif" font-size="10.00" fill="#000000">{Ventilator Aan}</text>
</g>
<!-- A1&#45;&gt;A2 -->
<g id="edge2" class="edge">
<title>A1&#45;&gt;A2</title>
<path fill="none" stroke="#000000" d="M53.6999,-113.5781C33.2257,-107.0251 12.3937,-98.5787 6.5123,-90 -2.5349,-76.8035 -1.6611,-67.7548 6.5123,-54 9.1575,-49.5485 12.5673,-45.6128 16.442,-42.1396"/>
<polygon fill="#000000" stroke="#000000" points="24.3871,-36.017 19.213,-45.6854 20.4266,-39.069 16.4662,-42.121 16.4662,-42.121 16.4662,-42.121 20.4266,-39.069 13.7193,-38.5566 24.3871,-36.017 24.3871,-36.017"/>
<text text-anchor="middle" x="42.2163" y="-69" font-family="Helvetica,sans-Serif" font-size="10.00" fill="#000000">[knop ingedrukt]</text>
</g>
<!-- A2&#45;&gt;A1 -->
<g id="edge3" class="edge">
<title>A2&#45;&gt;A1</title>
<path fill="none" stroke="#000000" d="M77.1609,-36.0502C81.3722,-52.8956 87.7217,-78.2936 92.6009,-97.8102"/>
<polygon fill="#000000" stroke="#000000" points="95.0681,-107.6793 88.2771,-99.0693 93.8554,-102.8286 92.6427,-97.9778 92.6427,-97.9778 92.6427,-97.9778 93.8554,-102.8286 97.0084,-96.8864 95.0681,-107.6793 95.0681,-107.6793"/>
<text text-anchor="middle" x="126.2163" y="-81" font-family="Helvetica,sans-Serif" font-size="10.00" fill="#000000">[knop ingedrukt </text>
<text text-anchor="middle" x="126.2163" y="-69" font-family="Helvetica,sans-Serif" font-size="10.00" fill="#000000">OF</text>
<text text-anchor="middle" x="126.2163" y="-57" font-family="Helvetica,sans-Serif" font-size="10.00" fill="#000000"> timer verlopen]</text>
</g>
<!-- A4 -->
<g id="node5" class="node">
<title>A4</title>
<path fill="none" stroke="#000000" d="M247.9376,-36C247.9376,-36 191.359,-36 191.359,-36 185.359,-36 179.359,-30 179.359,-24 179.359,-24 179.359,-12 179.359,-12 179.359,-6 185.359,0 191.359,0 191.359,0 247.9376,0 247.9376,0 253.9376,0 259.9376,-6 259.9376,-12 259.9376,-12 259.9376,-24 259.9376,-24 259.9376,-30 253.9376,-36 247.9376,-36"/>
<text text-anchor="middle" x="219.6483" y="-15" font-family="Helvetica,sans-Serif" font-size="10.00" fill="#000000">{Timer Aan}</text>
</g>
<!-- A3&#45;&gt;A4 -->
<g id="edge5" class="edge">
<title>A3&#45;&gt;A4</title>
<path fill="none" stroke="#000000" d="M215.8261,-110.8141C207.3341,-105.5387 199.3997,-98.697 194.5123,-90 186.6739,-76.0516 189.7112,-69.2627 194.5123,-54 195.4959,-50.8733 196.8582,-47.7812 198.4443,-44.8005"/>
<polygon fill="#000000" stroke="#000000" points="203.7189,-36.2685 202.288,-47.1406 201.0897,-40.5214 198.4604,-44.7743 198.4604,-44.7743 198.4604,-44.7743 201.0897,-40.5214 194.6328,-42.408 203.7189,-36.2685 203.7189,-36.2685"/>
<text text-anchor="middle" x="230.2163" y="-69" font-family="Helvetica,sans-Serif" font-size="10.00" fill="#000000">[knop ingedrukt]</text>
</g>
<!-- A4&#45;&gt;A3 -->
<g id="edge6" class="edge">
<title>A4&#45;&gt;A3</title>
<path fill="none" stroke="#000000" d="M250.8861,-36.0892C256.847,-41.0839 262.2726,-47.0714 265.6483,-54 272.348,-67.7507 270.0622,-84.5408 265.7748,-98.4473"/>
<polygon fill="#000000" stroke="#000000" points="262.399,-107.9791 261.4957,-97.0505 264.0683,-103.2659 265.7375,-98.5528 265.7375,-98.5528 265.7375,-98.5528 264.0683,-103.2659 269.9794,-100.0551 262.399,-107.9791 262.399,-107.9791"/>
<text text-anchor="middle" x="355.9398" y="-69" font-family="Helvetica,sans-Serif" font-size="10.00" fill="#000000">[Timer Verlopen/Schakel Ventilator uit]</text>
</g>
<!-- A6 -->
<g id="node7" class="node">
<title>A6</title>
<path fill="none" stroke="#000000" d="M521.5733,-36C521.5733,-36 443.7233,-36 443.7233,-36 437.7233,-36 431.7233,-30 431.7233,-24 431.7233,-24 431.7233,-12 431.7233,-12 431.7233,-6 437.7233,0 443.7233,0 443.7233,0 521.5733,0 521.5733,0 527.5733,0 533.5733,-6 533.5733,-12 533.5733,-12 533.5733,-24 533.5733,-24 533.5733,-30 527.5733,-36 521.5733,-36"/>
<text text-anchor="middle" x="482.6483" y="-15" font-family="Helvetica,sans-Serif" font-size="10.00" fill="#000000">{Knop ingedrukt}</text>
</g>
<!-- A5&#45;&gt;A6 -->
<g id="edge8" class="edge">
<title>A5&#45;&gt;A6</title>
<path fill="none" stroke="#000000" d="M477.4313,-107.6793C475.6989,-90.821 475.4348,-65.5651 476.6392,-46.147"/>
<polygon fill="#000000" stroke="#000000" points="477.4593,-36.0502 481.1348,-46.3817 477.0545,-41.0337 476.6496,-46.0173 476.6496,-46.0173 476.6496,-46.0173 477.0545,-41.0337 472.1644,-45.653 477.4593,-36.0502 477.4593,-36.0502"/>
</g>
<!-- A6&#45;&gt;A5 -->
<g id="edge9" class="edge">
<title>A6&#45;&gt;A5</title>
<path fill="none" stroke="#000000" d="M487.8373,-36.0502C489.5855,-52.818 489.8653,-78.0597 488.6767,-97.54"/>
<polygon fill="#000000" stroke="#000000" points="487.8653,-107.6793 484.1775,-97.3521 488.2642,-102.6952 488.6631,-97.7111 488.6631,-97.7111 488.6631,-97.7111 488.2642,-102.6952 493.1488,-98.0702 487.8653,-107.6793 487.8653,-107.6793"/>
</g>
</g>
</svg>
